# xmcd CD database file
#
# Track frame offsets:
#	150
#	35925
#	74705
#	109127
#	136055
#	167125
#	189405
#	220747
#	243310
#
# Disc length: 3638 seconds
#
# Revision: 0
# Processed by: cddbd v1.4PL0 Copyright (c) Steve Scherf et al.
# Submitted via: CDex 1.50Beta5
#
DISCID=860e3409
DTITLE=Eric Alexander - Solid
DYEAR=1998
DGENRE=Jazz
TTITLE0=Solid
TTITLE1=Little Melonae
TTITLE2=Theme for Ernie
TTITLE3=Fire Waltz
TTITLE4=Four
TTITLE5=The Star Crossed Lovers
TTITLE6=My Conception
TTITLE7=Light Blue
TTITLE8=Straight Street
EXTD=YEAR: 1998
EXTT0=
EXTT1=
EXTT2=
EXTT3=
EXTT4=
EXTT5=
EXTT6=
EXTT7=
EXTT8=
PLAYORDER=
